<svg width="100" height="100" viewBox="0 0 100 100" fill="none" xmlns="http://www.w3.org/2000/svg">
<path d="M57.5776 20.0996C63.1429 23.6772 66.2435 51.7816 59.1677 67.6027" stroke="#820003" stroke-linecap="round"/>
<path d="M57.5776 20C52.0124 23.5776 42.5515 52.1789 49.6273 68" stroke="#820003" stroke-linecap="round"/>
<path d="M57.4783 20.0996C56.0207 34.9071 53.5627 65.5158 54.1987 67.9009" stroke="#820003" stroke-linecap="round"/>
<path d="M61.7515 29.1431C67.469 30.6852 71.9875 33.9133 71.9875 39.5778C71.9875 45.2424 68.3075 49.2141 62.944 50.907" stroke="#820003"/>
<path d="M50.8199 27.3542L48.5342 24.4722" stroke="#820003" stroke-linecap="round"/>
<path d="M47.0434 37.4907L41.7764 36" stroke="#820003" stroke-linecap="round"/>
<path d="M45.7518 43.7515L39.9878 44.7453" stroke="#820003" stroke-linecap="round"/>
<path d="M43.4907 54L42 54.9938" stroke="#820003" stroke-linecap="round"/>
<path d="M64.7329 28.2483L66.1242 22.8818" stroke="#820003" stroke-linecap="round"/>
<path d="M69.9004 31.6272L73.7762 27.7515" stroke="#820003" stroke-linecap="round"/>
<path d="M73.0806 37.0932L78.5464 35.8013" stroke="#820003" stroke-linecap="round"/>
<path d="M72.8818 43.1553L78.7452 44.3478" stroke="#820003" stroke-linecap="round"/>
<path d="M70.7949 48.124L75.1676 51.9004" stroke="#820003" stroke-linecap="round"/>
<path d="M65.7266 51.5029L67.7141 56.8694" stroke="#820003" stroke-linecap="round"/>
<path d="M7.68945 71.9753C13.9503 75.1554 32.1963 72.7504 38.3975 69.0933C46.1491 64.5218 45.2547 68.1989 49.9255 68.0001C54.5963 67.8013 58.4721 68.0995 60.2609 67.3044C62.0497 66.5094 66.7205 65.615 72.087 69.0933C77.4534 72.5715 85.0062 71.9753 86 69.9877" stroke="#820003" stroke-linecap="round"/>
<path d="M37.0062 69.6897C36.9399 68.7621 35.8335 67.1853 31.9379 68.2984C27.0683 69.6897 21.9006 71.5779 16.7329 71.3791" stroke="#820003" stroke-linecap="round"/>
<path d="M31.6396 75.7514C33.2297 75.9501 38.616 75.493 47.4409 72.0744C58.4719 67.8011 66.4223 71.2793 69.2049 72.5713C71.9875 73.8632 75.267 74.857 78.149 74.857" stroke="#820003" stroke-linecap="round"/>
<path d="M54 74.8379C55.1925 74.0097 58.6311 73.0689 62.8447 75.931" stroke="#820003" stroke-linecap="round"/>
<path d="M31.0007 61.8036C31.0947 61.8537 31.1937 61.8938 31.2962 61.9231C31.2778 62.0276 31.2699 62.1338 31.2736 62.2398C31.1682 62.2546 31.0646 62.2804 30.9647 62.3169C30.9181 62.2216 30.8622 62.1313 30.7969 62.0477C30.8733 61.9739 30.9412 61.8918 31.0007 61.8036Z" stroke="#820003"/>
<path d="M26.0534 64.8569C26.1474 64.9069 26.2465 64.947 26.3489 64.9764C26.3305 65.0808 26.3226 65.187 26.3263 65.293C26.221 65.3079 26.1173 65.3336 26.0174 65.3701C25.9709 65.2748 25.9149 65.1845 25.8496 65.101C25.9261 65.0271 25.994 64.945 26.0534 64.8569Z" stroke="#820003"/>
<path d="M25.0534 80.8569C25.1474 80.9069 25.2465 80.947 25.3489 80.9764C25.3305 81.0808 25.3226 81.187 25.3263 81.293C25.221 81.3079 25.1173 81.3336 25.0174 81.3701C24.9709 81.2748 24.9149 81.1845 24.8496 81.101C24.9261 81.0271 24.994 80.945 25.0534 80.8569Z" stroke="#820003"/>
<path d="M34.0534 82.8569C34.1474 82.9069 34.2465 82.947 34.3489 82.9764C34.3305 83.0808 34.3226 83.187 34.3263 83.293C34.221 83.3079 34.1173 83.3336 34.0174 83.3701C33.9709 83.2748 33.9149 83.1845 33.8496 83.101C33.9261 83.0271 33.994 82.945 34.0534 82.8569Z" stroke="#820003"/>
<path d="M38.0534 71.8569C38.1474 71.9069 38.2465 71.947 38.3489 71.9764C38.3305 72.0808 38.3226 72.187 38.3263 72.293C38.221 72.3079 38.1173 72.3336 38.0174 72.3701C37.9709 72.2748 37.9149 72.1845 37.8496 72.101C37.9261 72.0271 37.994 71.945 38.0534 71.8569Z" stroke="#820003"/>
<path d="M44.0534 80.8569C44.1474 80.9069 44.2465 80.947 44.3489 80.9764C44.3305 81.0808 44.3226 81.187 44.3263 81.293C44.221 81.3079 44.1173 81.3336 44.0174 81.3701C43.9709 81.2748 43.9149 81.1845 43.8496 81.101C43.9261 81.0271 43.994 80.945 44.0534 80.8569Z" stroke="#820003"/>
<path d="M54.0534 80.8569C54.1474 80.9069 54.2465 80.947 54.3489 80.9764C54.3305 81.0808 54.3226 81.187 54.3263 81.293C54.221 81.3079 54.1173 81.3336 54.0174 81.3701C53.9709 81.2748 53.9149 81.1845 53.8496 81.101C53.9261 81.0271 53.994 80.945 54.0534 80.8569Z" stroke="#820003"/>
<path d="M66.0534 73.8569C66.1474 73.9069 66.2465 73.947 66.3489 73.9764C66.3305 74.0808 66.3226 74.187 66.3263 74.293C66.221 74.3079 66.1173 74.3336 66.0174 74.3701C65.9709 74.2748 65.9149 74.1845 65.8496 74.101C65.9261 74.0271 65.994 73.945 66.0534 73.8569Z" stroke="#820003"/>
<path d="M72.0534 64.8569C72.1474 64.9069 72.2465 64.947 72.3489 64.9764C72.3305 65.0808 72.3226 65.187 72.3263 65.293C72.221 65.3079 72.1173 65.3336 72.0174 65.3701C71.9709 65.2748 71.9149 65.1845 71.8496 65.101C71.9261 65.0271 71.994 64.945 72.0534 64.8569Z" stroke="#820003"/>
<path d="M73.0534 77.8569C73.1474 77.9069 73.2465 77.947 73.3489 77.9764C73.3305 78.0808 73.3226 78.187 73.3263 78.293C73.221 78.3079 73.1173 78.3336 73.0174 78.3701C72.9709 78.2748 72.9149 78.1845 72.8496 78.101C72.9261 78.0271 72.994 77.945 73.0534 77.8569Z" stroke="#820003"/>
<path d="M81.0534 77.8569C81.1474 77.9069 81.2465 77.947 81.3489 77.9764C81.3305 78.0808 81.3226 78.187 81.3263 78.293C81.221 78.3079 81.1173 78.3336 81.0174 78.3701C80.9709 78.2748 80.9149 78.1845 80.8496 78.101C80.9261 78.0271 80.994 77.945 81.0534 77.8569Z" stroke="#820003"/>
<path d="M9 62.7067C9.37525 62.9087 9.77679 63.0082 10.1811 62.9995C12.6417 62.9995 12.6417 60 15.0911 60C17.5404 60 17.5466 62.9995 20 62.9995" stroke="#820003" stroke-linecap="round" stroke-linejoin="round"/>
<path d="M22 54.7067C22.3752 54.9087 22.7768 55.0082 23.1811 54.9995C25.6417 54.9995 25.6417 52 28.0911 52C30.5404 52 30.5466 54.9995 33 54.9995" stroke="#820003" stroke-linecap="round" stroke-linejoin="round"/>
<path d="M78 60.7067C78.3752 60.9087 78.7768 61.0082 79.1811 60.9995C81.6417 60.9995 81.6417 58 84.0911 58C86.5404 58 86.5466 60.9995 89 60.9995" stroke="#820003" stroke-linecap="round" stroke-linejoin="round"/>
</svg>
