<svg width="100" height="100" viewBox="0 0 100 100" fill="none" xmlns="http://www.w3.org/2000/svg">
<g clip-path="url(#clip0_406_4004)">
<path d="M50.5186 34.2715L50.5186 51.2715M50.5186 51.2715L41.0186 54.5M50.5186 51.2715L59.0186 54.5" stroke="#820003" stroke-linecap="round"/>
<path d="M0.0998535 81.2715L14.8902 53.8848C14.9401 53.7925 15.0803 53.8294 15.0782 53.9343L14.5308 81.3927C14.5286 81.5065 14.6878 81.5351 14.7253 81.4276L27.5244 44.6994C27.5508 44.6237 27.6511 44.6083 27.699 44.6726L37.2173 57.4461C37.2701 57.517 37.3822 57.4895 37.3962 57.4022L41.136 34.1504" stroke="#820003" stroke-linecap="round"/>
<path d="M41.0864 54.5215L15.8824 81.2081C15.6935 81.4081 15.4305 81.5215 15.1554 81.5215H0.0864258" stroke="#820003" stroke-linecap="round"/>
<path d="M41.0864 34.0215L15.0864 53.5215H0.0864258" stroke="#820003" stroke-linecap="round"/>
<path d="M100.123 81.2715L85.3375 53.8942C85.2874 53.8013 85.1463 53.8394 85.1496 53.9449L85.999 80.8932C86.0026 81.007 85.8437 81.0374 85.805 80.9304L72.6995 44.6962C72.6724 44.6213 72.5728 44.6066 72.5252 44.6705L63.0054 57.4461C62.9526 57.517 62.8405 57.4895 62.8265 57.4022L59.0866 34.1504" stroke="#820003" stroke-linecap="round"/>
<path d="M59.1362 54.5215L84.3403 81.2081C84.5292 81.4081 84.7921 81.5215 85.0673 81.5215H100.136" stroke="#820003" stroke-linecap="round"/>
<path d="M59.1362 34.0215L85.1362 53.5215H100.136" stroke="#820003" stroke-linecap="round"/>
<path d="M41.0186 34L59.0186 34" stroke="#820003" stroke-linecap="round"/>
<path d="M0 42.8043C0.481695 42.9977 0.997143 43.093 1.51614 43.0846C4.67476 43.0846 4.67477 40.2129 7.81892 40.2129C10.9631 40.2129 10.9709 43.0846 14.1203 43.0846" stroke="#820003" stroke-linecap="round" stroke-linejoin="round"/>
<path d="M15.7666 34.5914C16.2483 34.7848 16.7637 34.8801 17.2827 34.8717C20.4414 34.8717 20.4414 32 23.5855 32C26.7297 32 26.7375 34.8717 29.8869 34.8717" stroke="#820003" stroke-linecap="round" stroke-linejoin="round"/>
<path d="M3.28516 34.5914C3.76685 34.7848 4.2823 34.8801 4.8013 34.8717C7.95991 34.8717 7.95993 32 11.1041 32C14.2482 32 14.2561 34.8717 17.4055 34.8717" stroke="#820003" stroke-linecap="round" stroke-linejoin="round"/>
<path d="M99.8867 42.8043C99.405 42.9977 98.8896 43.093 98.3706 43.0846C95.212 43.0846 95.2119 40.2129 92.0678 40.2129C88.9237 40.2129 88.9158 43.0846 85.7664 43.0846" stroke="#820003" stroke-linecap="round" stroke-linejoin="round"/>
<path d="M28 24.9022C27.7612 24.9696 27.5057 25.0027 27.2484 24.9998C25.6825 24.9998 25.6825 24 24.1239 24C22.5652 24 22.5613 24.9998 21 24.9998" stroke="#820003" stroke-linecap="round" stroke-linejoin="round"/>
<path d="M45 17.9022C44.693 17.9696 44.3644 18.0027 44.0336 17.9998C42.0204 17.9998 42.0204 17 40.0164 17C38.0124 17 38.0074 17.9998 36 17.9998" stroke="#820003" stroke-linecap="round" stroke-linejoin="round"/>
<path d="M77 24.9022C76.693 24.9696 76.3644 25.0027 76.0336 24.9998C74.0204 24.9998 74.0204 24 72.0164 24C70.0124 24 70.0074 24.9998 68 24.9998" stroke="#820003" stroke-linecap="round" stroke-linejoin="round"/>
<path d="M54 16.8044C54.3411 16.9391 54.7062 17.0055 55.0737 16.9996C57.3107 16.9996 57.3107 15 59.5373 15C61.764 15 61.7696 16.9996 64 16.9996" stroke="#820003" stroke-linecap="round" stroke-linejoin="round"/>
<path d="M84.1201 34.5914C83.6384 34.7848 83.123 34.8801 82.604 34.8717C79.4454 34.8717 79.4453 32 76.3012 32C73.1571 32 73.1492 34.8717 69.9998 34.8717" stroke="#820003" stroke-linecap="round" stroke-linejoin="round"/>
<path d="M96.6016 34.5914C96.1199 34.7848 95.6044 34.8801 95.0854 34.8717C91.9268 34.8717 91.9268 32 88.7826 32C85.6385 32 85.6306 34.8717 82.4812 34.8717" stroke="#820003" stroke-linecap="round" stroke-linejoin="round"/>
</g>
<defs>
<clipPath id="clip0_406_4004">
<rect width="100" height="100" fill="white"/>
</clipPath>
</defs>
</svg>
