<svg width="100" height="100" viewBox="0 0 100 100" fill="none" xmlns="http://www.w3.org/2000/svg">
<path d="M67.3684 33.6313V52.9998" stroke="#820003" stroke-linecap="round"/>
<path d="M47 71L38.9473 75.4737" stroke="#820003" stroke-linecap="round"/>
<path d="M12.1831 6H68.1051C68.5918 6 69.0079 6.35044 69.0905 6.83009L72.6906 27.7102C72.7968 28.3263 72.318 28.8877 71.6929 28.8801L9.29678 28.1192C8.69318 28.1118 8.23366 27.5754 8.31902 26.9778L11.1932 6.85858C11.2636 6.36593 11.6855 6 12.1831 6Z" stroke="#820003" stroke-linecap="round"/>
<path d="M8.15796 27.3159V28.1262C8.15796 31.1668 10.6229 33.6317 13.6635 33.6317V33.6317C16.0332 33.6317 18.1371 32.1153 18.8865 29.8672L19.2106 28.8949" stroke="#820003" stroke-linecap="round"/>
<path d="M62.6315 28.8949V28.8949C62.2182 31.3746 64.1304 33.6318 66.6442 33.6318H67.6222C69.8085 33.6318 71.7298 32.1825 72.3304 30.0804L72.8947 28.1055" stroke="#820003" stroke-linecap="round"/>
<path d="M19.2104 28.1055V28.1055C19.2104 31.1461 21.6754 33.6318 24.716 33.6318V33.6318C27.0857 33.6318 29.1896 32.1154 29.939 29.8673L30.2631 28.8949" stroke="#820003" stroke-linecap="round"/>
<path d="M30.2631 28.8945V28.8945C29.8498 31.3741 31.762 33.6314 34.2758 33.6314H35.3558C37.5006 33.6314 39.4048 32.2589 40.0831 30.2242L40.5263 28.8945" stroke="#820003" stroke-linecap="round"/>
<path d="M40.5263 28.8945V28.8945C40.113 31.3741 42.0252 33.6314 44.539 33.6314H45.619C47.7638 33.6314 49.668 32.2589 50.3462 30.2242L50.7894 28.8945" stroke="#820003" stroke-linecap="round"/>
<path d="M51.579 28.8945V28.8945C51.1658 31.3741 53.0779 33.6314 55.5917 33.6314H56.6717C58.8165 33.6314 60.7207 32.2589 61.399 30.2242L61.8422 28.8945" stroke="#820003" stroke-linecap="round"/>
<path d="M12.8948 33.6313V65.9998" stroke="#820003" stroke-linecap="round"/>
<path d="M5 66.7896H52.3684" stroke="#820003" stroke-linecap="round"/>
<rect x="33.9211" y="38.8687" width="11.6316" height="11.6316" rx="0.5" stroke="#820003"/>
<circle cx="30.2631" cy="61.2631" r="5.02632" stroke="#820003"/>
<circle cx="40.5263" cy="61.2631" r="5.02632" stroke="#820003"/>
<path d="M53.158 57.3159C52.621 57.1248 51.2431 57.3159 50.6261 57.3159C48.1003 57.3159 46.0527 59.0832 46.0527 61.2633C46.0527 63.4434 48.1003 65.2107 50.6261 65.2107C51.2431 65.2107 52.621 65.4018 53.158 65.2107" stroke="#820003"/>
<rect x="52.8684" y="53.0791" width="30.5789" height="40.0526" rx="0.5" stroke="#820003"/>
<path d="M82 53H94C94.5523 53 95 53.4477 95 54V70" stroke="#820003" stroke-linecap="round"/>
<path d="M95 76V92C95 92.5523 94.5523 93 94 93H83" stroke="#820003" stroke-linecap="round"/>
<path d="M89.4737 60.4736V88.1052M89.4737 88.1052L94.2106 92.0526M89.4737 88.1052L83.158 92.8421" stroke="#820003" stroke-linecap="round"/>
<rect x="13.3948" y="70.4473" width="33.7368" height="22.6842" rx="0.5" stroke="#820003"/>
<rect x="21.2896" y="75.1841" width="17.9474" height="13.2105" rx="0.5" stroke="#820003"/>
<path d="M38.9473 88.1055L46.0525 92.8423" stroke="#820003" stroke-linecap="round"/>
<path d="M21.5789 88.1055L14.4736 92.8423" stroke="#820003" stroke-linecap="round"/>
<path d="M21.5789 75.4737L14 71" stroke="#820003" stroke-linecap="round"/>
<path d="M76.0527 57.3157V52.5788C76.0527 48.2187 72.5181 44.6841 68.1579 44.6841V44.6841C63.7978 44.6841 60.2632 48.2187 60.2632 52.5788V57.3157" stroke="#820003"/>
<path d="M85.5262 53.4999L85.5262 51.7893C85.5262 47.8652 82.3451 44.6841 78.4209 44.6841V44.6841C74.4968 44.6841 71.3157 47.8652 71.3157 51.7893V53.4999" stroke="#820003"/>
<circle cx="61.0527" cy="58.8948" r="1.86842" stroke="#820003"/>
<circle cx="75.2632" cy="58.8948" r="1.86842" stroke="#820003"/>
<path d="M19 28L22 6.5" stroke="#820003" stroke-linecap="round"/>
<path d="M30.5 28.5L34 6.5" stroke="#820003" stroke-linecap="round"/>
<path d="M40.5 28.5L44.5 6" stroke="#820003" stroke-linecap="round"/>
<path d="M51.5 28.5L55 6" stroke="#820003" stroke-linecap="round"/>
<path d="M62 29L64 6" stroke="#820003" stroke-linecap="round"/>
</svg>
