<svg width="100" height="100" viewBox="0 0 100 100" fill="none" xmlns="http://www.w3.org/2000/svg">
<path d="M40.5498 85.2375L41.4498 56.5811" stroke="#820003" stroke-linecap="round"/>
<path d="M42.7998 85.2375L43.6998 56.5811" stroke="#820003" stroke-linecap="round"/>
<path d="M39.2001 57.9787C39.2001 61.4567 40.1476 63.7205 40.7797 64.6722C40.9119 64.8712 41.0001 65.0995 41.0001 65.3384V68.1617C41.0001 68.714 40.5524 69.1617 40.0001 69.1617H38.2815C37.7365 69.1617 37.2919 69.5981 37.2817 70.1431L37.0183 84.2559C37.0081 84.8009 36.5635 85.2373 36.0185 85.2373H34.5294C33.9658 85.2373 33.5135 84.7717 33.5298 84.2083L33.9702 69.029C33.9865 68.4656 33.5342 68 32.9706 68H26.578C26.0758 68 25.6515 68.3725 25.5865 68.8706L23.5637 84.3667C23.4987 84.8647 23.0744 85.2373 22.5721 85.2373H18.8997C18.2923 85.2373 17.8252 84.7002 17.9094 84.0987L19.8919 69.9342C19.9554 69.4801 19.7003 69.0454 19.291 68.8387C15.9874 67.1702 12.1928 63.015 10.8501 57.2798" stroke="#820003" stroke-linecap="round"/>
<path d="M61.6998 59.3768C61.6998 63.2909 59.1498 64.2694 58.5498 64.9683V69.1619H63.013C63.54 69.1619 63.9766 69.5709 64.0109 70.0967L64.939 84.3027C64.9734 84.8285 65.4099 85.2375 65.9369 85.2375H66.9258C67.5062 85.2375 67.9646 84.745 67.9232 84.1661L66.9267 70.2333C66.8853 69.6544 67.3438 69.1619 67.9242 69.1619H74.1436C74.6366 69.1619 75.056 69.5212 75.1317 70.0083L77.3685 84.3912C77.4443 84.8783 77.8637 85.2375 78.3566 85.2375H80.3504C80.9578 85.2375 81.425 84.7004 81.3408 84.0989L79.3464 69.8501C79.2885 69.4364 79.4953 69.0339 79.8491 68.8118C83.193 66.712 87.1288 61.8537 86.4498 56.5811" stroke="#820003" stroke-linecap="round"/>
<path d="M62.6 56.5811H36.5" stroke="#820003" stroke-linecap="round"/>
<path d="M31.5498 44.6987L37.3998 58.6775" stroke="#820003" stroke-linecap="round"/>
<path d="M67.1001 44.6987L61.7001 59.3764" stroke="#820003" stroke-linecap="round"/>
<path d="M41 50.9893L42.8 56.5808" stroke="#820003" stroke-linecap="round"/>
<path d="M57.2002 50.9893L56.7502 55.8818" stroke="#820003" stroke-linecap="round"/>
<path d="M10.8501 57.2798C13.5501 61.4734 30.5601 63.0111 39.2001 57.9787" stroke="#820003" stroke-linecap="round"/>
<path d="M31.1001 44C34.5287 48.557 56.1287 50.2279 67.1001 44.7595" stroke="#820003" stroke-linecap="round"/>
<path d="M31.1001 44C34.5287 48.557 56.1287 50.2279 67.1001 44.7595" stroke="#820003" stroke-linecap="round"/>
<path d="M31.1001 44C35.1501 53.0862 57.6501 55.8819 67.1001 44.6989" stroke="#820003" stroke-linecap="round"/>
<path d="M86.4502 56.5811C83.7502 60.7747 70.3402 64.4092 61.7002 59.3768" stroke="#820003" stroke-linecap="round"/>
<path d="M12.6499 61.4733C15.307 64.5113 30.697 64.9264 39.1999 61.2808" stroke="#820003" stroke-linecap="round"/>
<path d="M86 60.0757C83.3429 63.1137 69.7529 65.8181 61.25 62.1725" stroke="#820003" stroke-linecap="round"/>
<path d="M19 74.9999C14.95 73.835 8.96 72.0971 5 72.6563" stroke="#820003" stroke-linecap="round"/>
<path d="M10.8501 73.3555L8.6001 82.4417" stroke="#820003" stroke-linecap="round"/>
<path d="M26.5 85L27.0471 77.453C27.0633 77.2303 27.1075 77.0106 27.1789 76.7991L27.3663 76.2433C27.617 75.5003 28.3137 75 29.0979 75V75C29.9898 75 30.7515 75.6439 30.8998 76.5235L30.9678 76.9268C30.9892 77.0538 31 77.1824 31 77.3112V85" stroke="#820003" stroke-linecap="round"/>
<path d="M74.5 85L74.0135 77.2159C74.0045 77.0723 73.9824 76.9298 73.9475 76.7901L73.8693 76.4773C73.6523 75.6091 72.8722 75 71.9772 75V75C71.0066 75 70.1838 75.7137 70.0465 76.6745L70.0314 76.7803C70.0105 76.9264 70.0053 77.0742 70.0158 77.2213L70.5714 85" stroke="#820003" stroke-linecap="round"/>
<path d="M46 85V77.5V77.5C46 75.567 47.567 74 49.5 74V74C51.433 74 53 75.567 53 77.5V77.5V85" stroke="#820003" stroke-linecap="round"/>
<path d="M43.7002 60.0757H55.4002" stroke="#820003" stroke-linecap="round"/>
<path d="M43.7002 66.3662H55.4002" stroke="#820003" stroke-linecap="round"/>
<path d="M55.3999 56.5811L56.2999 85.2375" stroke="#820003" stroke-linecap="round"/>
<path d="M58.1001 56.5811L59.0001 85.2375" stroke="#820003" stroke-linecap="round"/>
<path d="M80 74.5002C83.9 73.1024 90.6799 71.3985 94.9999 71.9577" stroke="#820003" stroke-linecap="round"/>
<path d="M76 51C76 36.6406 64.3594 25 50 25C35.6406 25 24 36.6406 24 51" stroke="#820003" stroke-linecap="round"/>
<path d="M91.5 50.5C88.3758 30.3906 70.9852 15 49.9999 15C29.0147 15 11.6241 30.3906 8.49988 50.5" stroke="#820003" stroke-linecap="round"/>
</svg>
