<svg width="125" height="23" viewBox="0 0 125 23" fill="none" xmlns="http://www.w3.org/2000/svg">
<path fill-rule="evenodd" clip-rule="evenodd" d="M73.9216 13.7143L78.1773 11.9462C77.9429 11.3521 77.2398 10.9368 76.4113 10.9368C75.3463 10.9368 73.8681 11.8743 73.9216 13.7143ZM78.9154 15.4269L80.5375 16.5083C80.0153 17.2834 78.7529 18.6176 76.5716 18.6176C73.8681 18.6176 71.915 16.5247 71.915 13.8582C71.915 11.0252 73.8866 9.09672 76.3372 9.09672C78.8084 9.09672 80.0153 11.0622 80.4121 12.1271L80.6279 12.6678L74.2628 15.2994C74.7501 16.2554 75.5067 16.7426 76.5716 16.7426C77.6345 16.7426 78.3746 16.2184 78.9154 15.4269ZM68.6009 18.3298H70.6917V4.3373H68.6009V18.3298ZM65.1881 13.8747C65.1881 12.1991 64.0696 10.9717 62.6449 10.9717C61.2037 10.9717 59.9948 12.1991 59.9948 13.8747C59.9948 15.5338 61.2037 16.7426 62.6449 16.7426C64.0696 16.7426 65.1881 15.5338 65.1881 13.8747ZM67.026 9.38661V17.933C67.026 21.4486 64.9537 22.8919 62.501 22.8919C60.1922 22.8919 58.8045 21.3417 58.2823 20.0794L60.1038 19.3208C60.4286 20.0958 61.2222 21.0148 62.503 21.0148C64.0717 21.0148 65.0462 20.0424 65.0462 18.2208V17.5362H64.9742C64.5055 18.1139 63.6029 18.6176 62.4681 18.6176C60.0873 18.6176 57.906 16.5432 57.906 13.8747C57.906 11.1876 60.0873 9.09672 62.4681 9.09672C63.605 9.09672 64.5055 9.60042 64.9742 10.1596H65.0462V9.38455C65.0441 9.38661 67.026 9.38661 67.026 9.38661ZM44.2034 13.8582C44.2034 12.1436 42.9822 10.9738 41.5657 10.9738C40.1491 10.9738 38.9279 12.1456 38.9279 13.8582C38.9279 15.5523 40.1491 16.7426 41.5657 16.7426C42.9801 16.7426 44.2034 15.5523 44.2034 13.8582ZM46.2552 13.8582C46.2552 16.5987 44.1479 18.6176 41.5636 18.6176C38.9793 18.6176 36.872 16.5987 36.872 13.8582C36.872 11.0992 38.9793 9.09878 41.5636 9.09878C44.1499 9.09878 46.2552 11.0992 46.2552 13.8582ZM54.7194 13.8582C54.7194 12.1436 53.4982 10.9738 52.0816 10.9738C50.6651 10.9738 49.4439 12.1456 49.4439 13.8582C49.4439 15.5523 50.6651 16.7426 52.0816 16.7426C53.4982 16.7426 54.7194 15.5523 54.7194 13.8582ZM56.7732 13.8582C56.7732 16.5987 54.6659 18.6176 52.0816 18.6176C49.4974 18.6176 47.3901 16.5987 47.3901 13.8582C47.3901 11.0992 49.4974 9.09878 52.0816 9.09878C54.6659 9.09878 56.7732 11.0992 56.7732 13.8582ZM28.8355 18.6176C24.7607 18.6176 21.3355 15.2994 21.3355 11.2246C21.3355 7.14978 24.7627 3.83154 28.8375 3.83154C31.0929 3.83154 32.6965 4.71558 33.9053 5.871L32.4806 7.29575C31.6151 6.48366 30.4432 5.8525 28.8375 5.8525C25.8626 5.8525 23.5353 8.25175 23.5353 11.2266C23.5353 14.2015 25.8626 16.5987 28.8375 16.5987C30.766 16.5987 31.8659 15.8237 32.5711 15.1205C33.1488 14.5449 33.5271 13.7143 33.671 12.5794H28.8375V10.5605H35.6344C35.7084 10.9203 35.7433 11.3541 35.7433 11.8229C35.7433 13.3381 35.328 15.2131 33.9958 16.5473C32.6944 17.8981 31.0353 18.6176 28.8355 18.6176Z" fill="#5F6368"/>
<path d="M85.5677 18.1987V5.77734H87.1638L91.4835 13.3412H91.5529L95.8726 5.77734H97.4686V18.1987H95.8726V10.8257L95.942 8.74389H95.8726L91.9866 15.5617H91.0498L87.1638 8.74389H87.0944L87.1638 10.8257V18.1987H85.5677Z" fill="#63666A"/>
<path d="M102.378 18.4762C101.476 18.4762 100.721 18.216 100.114 17.6955C99.507 17.1751 99.2034 16.4898 99.2034 15.6311C99.2034 14.7029 99.559 13.983 100.279 13.4539C100.999 12.9247 101.884 12.6645 102.933 12.6645C103.87 12.6645 104.642 12.838 105.241 13.185V12.9421C105.241 12.3176 105.024 11.8145 104.599 11.4415C104.174 11.0685 103.645 10.8777 103.02 10.8777C102.56 10.8777 102.135 10.9904 101.762 11.2073C101.389 11.4241 101.129 11.7277 100.99 12.1094L99.533 11.4848C99.7325 10.9731 100.114 10.5047 100.695 10.071C101.277 9.63726 102.04 9.42041 102.985 9.42041C104.07 9.42041 104.972 9.74135 105.692 10.3746C106.412 11.0078 106.767 11.9099 106.767 13.0635V18.1986H105.241V17.0189H105.171C104.538 17.9904 103.601 18.4762 102.378 18.4762ZM102.638 17.0189C103.298 17.0189 103.896 16.7761 104.434 16.2816C104.972 15.7872 105.241 15.206 105.241 14.5381C104.79 14.1651 104.113 13.983 103.211 13.983C102.439 13.983 101.849 14.1478 101.459 14.4861C101.068 14.8244 100.869 15.2147 100.869 15.6658C100.869 16.0821 101.051 16.4117 101.407 16.6546C101.762 16.8975 102.179 17.0189 102.638 17.0189Z" fill="#63666A"/>
<path d="M112.987 18.4762C112.336 18.4762 111.755 18.3374 111.243 18.0598C110.731 17.7822 110.341 17.4353 110.089 17.0189H110.02L110.089 18.1986V21.9458H108.493V9.69798H110.02V10.8777H110.089C110.341 10.4613 110.731 10.1143 111.243 9.83677C111.755 9.55919 112.336 9.42041 112.987 9.42041C114.088 9.42041 115.034 9.85412 115.832 10.7215C116.63 11.5889 117.029 12.6645 117.029 13.9483C117.029 15.2321 116.63 16.3076 115.832 17.1751C115.034 18.0425 114.088 18.4762 112.987 18.4762ZM112.726 17.0189C113.464 17.0189 114.106 16.7414 114.635 16.1775C115.164 15.6137 115.433 14.8764 115.433 13.9483C115.433 13.0202 115.164 12.2829 114.635 11.719C114.106 11.1552 113.464 10.8777 112.726 10.8777C111.972 10.8777 111.338 11.1552 110.809 11.7104C110.28 12.2655 110.02 13.0115 110.02 13.9483C110.02 14.8851 110.28 15.6311 110.809 16.1862C111.338 16.7414 111.98 17.0189 112.726 17.0189Z" fill="#63666A"/>
<path d="M121.652 18.4762C120.706 18.4762 119.917 18.242 119.301 17.7822C118.685 17.3225 118.226 16.7414 117.939 16.0474L119.362 15.4576C119.813 16.5245 120.585 17.0536 121.669 17.0536C122.164 17.0536 122.571 16.9409 122.892 16.724C123.213 16.5072 123.369 16.2122 123.369 15.8566C123.369 15.3015 122.979 14.9285 122.207 14.729L120.49 14.3126C119.943 14.1738 119.431 13.9136 118.946 13.5233C118.46 13.1329 118.217 12.6125 118.217 11.9532C118.217 11.1986 118.547 10.5914 119.215 10.123C119.882 9.65461 120.672 9.42041 121.583 9.42041C122.337 9.42041 123.005 9.59389 123.595 9.93218C124.185 10.2705 124.61 10.7649 124.861 11.3981L123.474 11.9706C123.161 11.2159 122.511 10.843 121.531 10.843C121.053 10.843 120.654 10.9384 120.334 11.1379C120.013 11.3374 119.848 11.5976 119.848 11.9359C119.848 12.4217 120.221 12.7513 120.975 12.9247L122.658 13.3238C123.456 13.5059 124.046 13.8269 124.428 14.2779C124.809 14.729 125 15.2407 125 15.8046C125 16.5679 124.688 17.2011 124.063 17.7129C123.439 18.216 122.632 18.4762 121.652 18.4762Z" fill="#63666A"/>
<path d="M4.40579 16.9961C5.11508 17.8822 5.83465 18.9924 6.21294 19.6647C6.67346 20.5384 6.8626 21.1285 7.20594 22.1811C7.40742 22.7609 7.59656 22.9377 7.99746 22.9377C8.43537 22.9377 8.6348 22.6416 8.78899 22.1811C9.10765 21.1881 9.35642 20.4336 9.74499 19.712C10.5118 18.3304 11.4822 17.101 12.4259 15.9209C12.6849 15.5899 14.3399 13.6409 15.0842 12.0948C15.0842 12.0948 15.9929 10.4049 15.9929 8.04264C15.9929 5.83459 15.0945 4.29883 15.0945 4.29883L12.4958 4.99578L10.9127 9.15283L10.5221 9.72026L10.4399 9.82717L10.333 9.95669L10.1562 10.1684L9.89712 10.4275L8.49088 11.5726L4.9835 13.6039L4.40579 16.9961Z" fill="#34A853"/>
<path d="M0.779144 11.8107C1.64057 13.772 3.28324 15.4846 4.40577 16.9957L10.3473 9.95626C10.3473 9.95626 9.50853 11.0541 7.99744 11.0541C6.30748 11.0541 4.93825 9.7075 4.93825 8.00726C4.93825 6.83745 5.6352 6.03564 5.6352 6.03564L1.60562 7.11088L0.779144 11.8107Z" fill="#FBBC04"/>
<path d="M10.4173 0.365723C12.3889 1.00305 14.0789 2.33734 15.0945 4.31101L10.3454 9.96887C10.3454 9.96887 11.0423 9.15473 11.0423 7.99725C11.0423 6.26001 9.5785 4.9504 7.99545 4.9504C6.49464 4.9504 5.63321 6.03797 5.63321 6.03797V2.46892L10.4173 0.365723Z" fill="#4285F4"/>
<path d="M1.8647 2.85771C3.04479 1.45147 5.11304 0 7.97075 0C9.35232 0 10.4029 0.365952 10.4029 0.365952L5.63318 6.03615H2.25532L1.8647 2.85771Z" fill="#1A73E8"/>
<path d="M0.77919 11.8113C0.77919 11.8113 0 10.2632 0 8.0325C0 5.91903 0.826475 4.07488 1.87704 2.87012L5.64553 6.0465L0.77919 11.8113Z" fill="#EA4335"/>
</svg>
