<svg width="100" height="100" viewBox="0 0 100 100" fill="none" xmlns="http://www.w3.org/2000/svg">
<path d="M27.5459 8.5L30.6592 11.1485" stroke="#820003" stroke-linecap="round" stroke-linejoin="round"/>
<path d="M69.4443 11.1485L72.5616 8.5" stroke="#820003" stroke-linecap="round" stroke-linejoin="round"/>
<path d="M72.5622 8.5H27.5461V61.3893H72.5622V8.5Z" stroke="#820003" stroke-linecap="round" stroke-linejoin="round"/>
<path d="M69.4449 11.1484H30.6594V58.7368H69.4449V11.1484Z" stroke="#820003" stroke-linecap="round" stroke-linejoin="round"/>
<path d="M53.0492 70.0842C53.0456 70.6089 52.8979 71.1225 52.6224 71.5691C52.3468 72.0157 51.954 72.3779 51.4866 72.6164C51.0498 72.8478 50.5625 72.9676 50.0682 72.965C49.5741 72.9652 49.0874 72.8455 48.6498 72.6164C48.1831 72.3774 47.791 72.0149 47.5162 71.5683C47.2414 71.1218 47.0943 70.6085 47.0911 70.0842C47.1194 69.313 47.4456 68.5828 48.0012 68.0472C48.5568 67.5117 49.2984 67.2124 50.0701 67.2124C50.8418 67.2124 51.5835 67.5117 52.139 68.0472C52.6946 68.5828 53.0209 69.313 53.0492 70.0842Z" stroke="#820003" stroke-linecap="round" stroke-linejoin="round"/>
<path d="M30.4911 70.0845C30.489 70.6075 30.3438 71.12 30.0712 71.5664C29.7985 72.0128 29.409 72.376 28.9445 72.6167C28.5133 72.8476 28.0313 72.9674 27.5422 72.9653C27.0533 72.9649 26.572 72.8452 26.1398 72.6167C25.6767 72.3748 25.2883 72.0112 25.0165 71.565C24.7447 71.1188 24.5997 70.6069 24.5972 70.0845C24.6253 69.3217 24.9481 68.5995 25.4977 68.0698C26.0473 67.5401 26.7808 67.2441 27.5441 67.2441C28.3074 67.2441 29.041 67.5401 29.5906 68.0698C30.1402 68.5995 30.463 69.3217 30.4911 70.0845Z" stroke="#820003" stroke-linecap="round" stroke-linejoin="round"/>
<path d="M75.5433 70.0836C75.5397 70.6083 75.3922 71.122 75.1166 71.5685C74.8411 72.0151 74.4481 72.3773 73.9807 72.6158C73.5436 72.8463 73.0565 72.966 72.5623 72.9644C72.0683 72.9646 71.5816 72.8449 71.1439 72.6158C70.6768 72.377 70.2842 72.0146 70.0087 71.5681C69.7332 71.1217 69.5853 70.6082 69.5813 70.0836C69.5813 69.293 69.8954 68.5347 70.4545 67.9756C71.0135 67.4166 71.7717 67.1025 72.5623 67.1025C73.3529 67.1025 74.1112 67.4166 74.6703 67.9756C75.2293 68.5347 75.5433 69.293 75.5433 70.0836Z" stroke="#820003" stroke-linecap="round" stroke-linejoin="round"/>
<path d="M69.4448 58.7412L72.5621 61.3897" stroke="#820003" stroke-linecap="round" stroke-linejoin="round"/>
<path d="M30.6594 58.7412L27.5461 61.3897" stroke="#820003" stroke-linecap="round" stroke-linejoin="round"/>
<path d="M29.365 72.52V90.8229H25.7229V72.52C26.2861 72.8124 26.9114 72.965 27.546 72.9648C28.1795 72.9664 28.8037 72.8137 29.365 72.52Z" stroke="#820003" stroke-linecap="round" stroke-linejoin="round"/>
<path d="M51.8754 72.52V90.8229H48.2412V72.52C48.8048 72.8115 49.4298 72.964 50.0643 72.9648C50.695 72.9649 51.3164 72.8123 51.8754 72.52Z" stroke="#820003" stroke-linecap="round" stroke-linejoin="round"/>
<path d="M74.385 72.52V90.8229H70.7388V72.52C71.302 72.8122 71.9273 72.9648 72.5619 72.9648C73.1964 72.9648 73.8217 72.8122 74.385 72.52Z" stroke="#820003" stroke-linecap="round" stroke-linejoin="round"/>
<path d="M29.3652 78.0571C32.2491 79.6641 35.4958 80.5077 38.7972 80.5077C42.0986 80.5077 45.3452 79.6641 48.2291 78.0571" stroke="#820003" stroke-linecap="round" stroke-linejoin="round"/>
<path d="M29.3652 76.0576C32.25 77.6621 35.4963 78.5041 38.7972 78.5041C42.0981 78.5041 45.3444 77.6621 48.2291 76.0576" stroke="#820003" stroke-linecap="round" stroke-linejoin="round"/>
<path d="M51.8755 78.0571C54.7594 79.6641 58.006 80.5077 61.3074 80.5077C64.6088 80.5077 67.8554 79.6641 70.7393 78.0571" stroke="#820003" stroke-linecap="round" stroke-linejoin="round"/>
<path d="M51.8755 76.0576C54.7602 77.6621 58.0065 78.5041 61.3074 78.5041C64.6083 78.5041 67.8546 77.6621 70.7393 76.0576" stroke="#820003" stroke-linecap="round" stroke-linejoin="round"/>
<path d="M5 90.8228H95" stroke="#820003" stroke-linecap="round" stroke-linejoin="round"/>
<path d="M39.0002 11C43.1669 11.8333 51.1 16.8 45.5001 28C38.5001 42 40.5002 44.5 48 47.5C56.1076 50.7431 54.5002 57.5 54.0002 58.5" stroke="#820003" stroke-linecap="round"/>
<path d="M50.5001 11.5C57.5001 18.5 61.1148 33.1596 52 37.5C41.5 42.5 50.7177 46.2564 57 48.5C64.0001 51 63.1669 55.6667 63.0004 58.5" stroke="#820003" stroke-linecap="round"/>
<circle cx="54" cy="42" r="2.5" stroke="#820003"/>
</svg>
