<svg width="100" height="100" viewBox="0 0 100 100" fill="none" xmlns="http://www.w3.org/2000/svg">
<path d="M78.591 45.3755L36.823 46.8672" stroke="#820003" stroke-linecap="round"/>
<path d="M11.9613 24.9888H8.1404C6.67716 24.9888 5.70924 26.5086 6.32803 27.8345L11.0883 38.0351C11.5659 39.0586 11.1019 40.2742 10.0638 40.7191L9.69282 40.8781C8.95746 41.1933 8.48066 41.9163 8.48066 42.7164V43.7176C8.48066 44.4353 8.86524 45.098 9.48839 45.4541L11.6679 46.6996C11.8273 46.7906 12.0304 46.7291 12.1124 46.565V46.565C12.2 46.3899 11.9564 46.2411 11.8406 46.399L8.85719 50.4673C8.28813 51.2433 8.84227 52.3368 9.80456 52.3368H14.7319C15.1912 52.3368 15.6366 52.1787 15.9931 51.8891L23.3978 45.8727" stroke="#820003" stroke-linecap="round"/>
<path d="M41.2981 38.9116L33.6444 26.0211C32.8528 24.6879 33.8136 23 35.3641 23H37.7145C38.106 23 38.4889 23.1149 38.8157 23.3305L61.6848 38.4144" stroke="#820003" stroke-linecap="round"/>
<path d="M18.9228 49.8506L27.6123 52.5947C28.1145 52.7533 28.6386 52.8315 29.1652 52.8266L80.4546 52.3427C80.8683 52.3388 81.2799 52.2836 81.6799 52.1783L89.7453 50.0558C90.2643 49.9193 90.7714 49.7411 91.2618 49.5232L93.6232 48.4737C94.4605 48.1015 95.0002 47.2712 95.0002 46.3549V46.3549C95.0002 45.4541 94.4784 44.6348 93.6621 44.2538L81.1758 38.4269C80.4576 38.0917 79.67 37.9321 78.878 37.9612L35.0087 39.5711C29.2133 39.7837 23.611 37.4704 19.6541 33.2309L11.9615 24.9888" stroke="#820003" stroke-linecap="round"/>
<path d="M84.0609 44.8786H87.3068C88.6697 44.8786 89.9155 44.1086 90.525 42.8896V42.8896" stroke="#820003" stroke-linecap="round"/>
<path d="M39.8066 52.8345L27.6384 73.6941C26.8607 75.0274 27.8224 76.7019 29.366 76.7019H34.6648C35.0975 76.7019 35.5186 76.5615 35.8648 76.3019L67.1546 52.8345" stroke="#820003" stroke-linecap="round"/>
<path d="M57.7071 59.7954H51.7402" stroke="#820003" stroke-linecap="round"/>
<path d="M54.7237 33.9395H48.7569" stroke="#820003" stroke-linecap="round"/>
<path d="M48.7571 29.9614H42.7902" stroke="#820003" stroke-linecap="round"/>
<path d="M51.7404 63.7734H45.7736" stroke="#820003" stroke-linecap="round"/>
</svg>
