<svg width="100" height="100" viewBox="0 0 100 100" fill="none" xmlns="http://www.w3.org/2000/svg">
<path d="M91.9695 79.7573C57.4241 67.0301 38.6364 10.6664 72.5756 8.24219" stroke="#820003" stroke-linecap="round"/>
<path d="M81.0725 82.7878C46.5271 70.0605 44.0908 11.5757 64.697 10.0605" stroke="#820003" stroke-linecap="round"/>
<path d="M95 56.4241C87.6025 55.4451 76.823 55.333 65 57.3413M5 95.515C17.6825 74.2413 38.0553 63.6688 57.1212 58.9754" stroke="#820003" stroke-linecap="round"/>
<path d="M93.1818 33.0907C87.4242 25.919 71.1818 15.0907 54.697 29.1514" stroke="#820003" stroke-linecap="round"/>
<path d="M14.0909 32.6601C19.8485 25.4884 35.4849 14.6601 51.9697 28.7207" stroke="#820003" stroke-linecap="round"/>
<path d="M30.4545 4C38.5353 4.10101 54.3939 8.90909 51.9697 28.5455" stroke="#820003" stroke-linecap="round"/>
<path d="M51.6667 34.3028L55 33.6968" stroke="#820003" stroke-linecap="round"/>
<path d="M52.2727 41.5756L56.5151 40.6665" stroke="#820003" stroke-linecap="round"/>
<path d="M67.1212 60.6665C66.1111 61.9796 63.1818 64.4847 59.5455 63.9998" stroke="#820003" stroke-linecap="round"/>
<path d="M60.4545 50.6665C59.4444 51.9796 57.4242 53.6968 55 53.6968" stroke="#820003" stroke-linecap="round"/>
<path d="M74.697 69.1514C73.6869 70.4645 70.1515 73.5756 66.5151 73.0908" stroke="#820003" stroke-linecap="round"/>
<path d="M49.2424 26.7271C48.3333 28.0402 46.4545 30.9695 46.2121 32.1816" stroke="#820003" stroke-linecap="round"/>
<path d="M58.3333 27.0303C59.2424 28.3434 61.1212 31.2727 61.3636 32.4848" stroke="#820003" stroke-linecap="round"/>
<path d="M45 24.606C44.0909 25.9191 42.2122 28.8484 41.9697 30.0605" stroke="#820003" stroke-linecap="round"/>
<path d="M62.5758 24.606C63.4849 25.9191 65.3637 28.8484 65.6061 30.0605" stroke="#820003" stroke-linecap="round"/>
<path d="M40.1515 22.7881C39.2424 24.1012 37.3636 27.0305 37.1212 28.2426" stroke="#820003" stroke-linecap="round"/>
<path d="M67.4242 22.7881C68.3333 24.1012 70.2121 27.0305 70.4545 28.2426" stroke="#820003" stroke-linecap="round"/>
<path d="M35.303 22.1816C34.3939 23.4948 32.5151 26.4241 32.2727 27.6362" stroke="#820003" stroke-linecap="round"/>
<path d="M72.8788 22.7881C73.7878 24.1012 75.6666 27.0305 75.9091 28.2426" stroke="#820003" stroke-linecap="round"/>
<path d="M27.4242 23.394C26.5151 24.7072 24.6363 27.6365 24.3939 28.8486" stroke="#820003" stroke-linecap="round"/>
<path d="M80.1515 24C81.0606 25.3131 82.9394 28.2424 83.1818 29.4545" stroke="#820003" stroke-linecap="round"/>
<path d="M21.3637 26.4243C20.8182 27.2997 19.6909 29.2526 19.5455 30.0607" stroke="#820003" stroke-linecap="round"/>
<path d="M86.2121 27.0303C86.7575 27.9057 87.8848 29.8586 88.0303 30.6666" stroke="#820003" stroke-linecap="round"/>
<path d="M66.8182 84.6621C69.5203 83.2479 78.0912 81.2681 90.7576 84.6621" stroke="#820003" stroke-linecap="round"/>
<path d="M56.5151 18.5454C57.3232 18.5454 59.0606 18.8484 59.5454 20.0606" stroke="#820003" stroke-linecap="round"/>
<path d="M58.9394 14.9092C60.0707 14.9092 62.503 15.394 63.1818 17.3334" stroke="#820003" stroke-linecap="round"/>
<path d="M64.3939 10.0605C65.5252 10.0605 67.9576 10.5454 68.6363 12.4848" stroke="#820003" stroke-linecap="round"/>
<path d="M51.0606 17.9395C50.2525 17.9395 48.5152 18.2425 48.0303 19.4546" stroke="#820003" stroke-linecap="round"/>
<path d="M49.2424 13.6968C48.1111 13.6968 45.6788 14.1816 45 16.121" stroke="#820003" stroke-linecap="round"/>
<path d="M45.6061 9.45459C44.1515 9.45459 41.0243 10.0607 40.1515 12.4849" stroke="#820003" stroke-linecap="round"/>
<path d="M39.5455 5.81836C37.7677 5.81836 33.9455 6.66684 32.8788 10.0608" stroke="#820003" stroke-linecap="round"/>
<path d="M16.1204 68.5914C15.6387 68.7848 15.1232 68.8801 14.6042 68.8717C11.4456 68.8717 11.4456 66 8.30145 66C5.15731 66 5.14942 68.8717 2.00002 68.8717" stroke="#820003" stroke-linecap="round" stroke-linejoin="round"/>
<path d="M18 55.5914C18.4817 55.7848 18.9971 55.8801 19.5161 55.8717C22.6748 55.8717 22.6748 53 25.8189 53C28.9631 53 28.9709 55.8717 32.1203 55.8717" stroke="#820003" stroke-linecap="round" stroke-linejoin="round"/>
<path d="M5 42.7067C5.37525 42.9087 5.77679 43.0082 6.1811 42.9995C8.64172 42.9995 8.64173 40 11.0911 40C13.5404 40 13.5466 42.9995 16 42.9995" stroke="#820003" stroke-linecap="round" stroke-linejoin="round"/>
<path d="M69 34.9022C69.2388 34.9696 69.4943 35.0027 69.7516 34.9998C71.3175 34.9998 71.3175 34 72.8761 34C74.4348 34 74.4387 34.9998 76 34.9998" stroke="#820003" stroke-linecap="round" stroke-linejoin="round"/>
<path d="M28 42.5914C28.4817 42.7848 28.9971 42.8801 29.5161 42.8717C32.6748 42.8717 32.6748 40 35.8189 40C38.9631 40 38.9709 42.8717 42.1203 42.8717" stroke="#820003" stroke-linecap="round" stroke-linejoin="round"/>
<path d="M68 48.5914C68.4817 48.7848 68.9971 48.8801 69.5161 48.8717C72.6748 48.8717 72.6748 46 75.8189 46C78.9631 46 78.9709 48.8717 82.1203 48.8717" stroke="#820003" stroke-linecap="round" stroke-linejoin="round"/>
<path d="M95.1204 48.5914C94.6387 48.7848 94.1232 48.8801 93.6042 48.8717C90.4456 48.8717 90.4456 46 87.3014 46C84.1573 46 84.1494 48.8717 81 48.8717" stroke="#820003" stroke-linecap="round" stroke-linejoin="round"/>
</svg>
