<svg width="100" height="100" viewBox="0 0 100 100" fill="none" xmlns="http://www.w3.org/2000/svg">
<path d="M94 60C94 35.6995 74.3005 16 50 16C25.6995 16 6 35.6995 6 60" stroke="#820003" stroke-linecap="round"/>
<path d="M83.5484 60C83.5484 41.4718 68.5283 26.4517 50 26.4517C31.4718 26.4517 16.4517 41.4718 16.4517 60" stroke="#820003" stroke-linecap="round"/>
<path d="M66.7742 59.9998C66.7742 50.7356 59.2642 43.2256 50 43.2256C40.7359 43.2256 33.2258 50.7356 33.2258 59.9998" stroke="#820003" stroke-linecap="round"/>
<path d="M50 39V33.5" stroke="#820003" stroke-linecap="round"/>
<path d="M39.3984 42.8735L35.1021 38.626" stroke="#820003" stroke-linecap="round"/>
<path d="M60.8643 43.2475L65.1606 39" stroke="#820003" stroke-linecap="round"/>
<path d="M32.5 48.5L27 46" stroke="#820003" stroke-linecap="round"/>
<path d="M67.7627 48.874L73.2627 46.374" stroke="#820003" stroke-linecap="round"/>
<path d="M28.9862 55.3946L23 54.5791" stroke="#820003" stroke-linecap="round"/>
<path d="M71.2765 55.7686L77.2627 54.9531" stroke="#820003" stroke-linecap="round"/>
<path d="M59 67.5914C59.4817 67.7848 59.9971 67.8801 60.5161 67.8717C63.6748 67.8717 63.6748 65 66.8189 65C69.9631 65 69.9709 67.8717 73.1203 67.8717" stroke="#820003" stroke-linecap="round" stroke-linejoin="round"/>
<path d="M16 66.5914C16.4817 66.7848 16.9971 66.8801 17.5161 66.8717C20.6748 66.8717 20.6748 64 23.8189 64C26.9631 64 26.9709 66.8717 30.1203 66.8717" stroke="#820003" stroke-linecap="round" stroke-linejoin="round"/>
<path d="M6 76.5914C6.48169 76.7848 6.99714 76.8801 7.51614 76.8717C10.6748 76.8717 10.6748 74 13.8189 74C16.9631 74 16.9709 76.8717 20.1203 76.8717" stroke="#820003" stroke-linecap="round" stroke-linejoin="round"/>
<path d="M26 84.5914C26.4817 84.7848 26.9971 84.8801 27.5161 84.8717C30.6748 84.8717 30.6748 82 33.8189 82C36.9631 82 36.9709 84.8717 40.1203 84.8717" stroke="#820003" stroke-linecap="round" stroke-linejoin="round"/>
<path d="M54 77.5914C54.4817 77.7848 54.9971 77.8801 55.5161 77.8717C58.6748 77.8717 58.6748 75 61.8189 75C64.9631 75 64.9709 77.8717 68.1203 77.8717" stroke="#820003" stroke-linecap="round" stroke-linejoin="round"/>
<path d="M86.1204 67.5914C85.6387 67.7848 85.1232 67.8801 84.6042 67.8717C81.4456 67.8717 81.4456 65 78.3014 65C75.1573 65 75.1494 67.8717 72 67.8717" stroke="#820003" stroke-linecap="round" stroke-linejoin="round"/>
<path d="M43.1204 66.5914C42.6387 66.7848 42.1232 66.8801 41.6042 66.8717C38.4456 66.8717 38.4456 64 35.3014 64C32.1573 64 32.1494 66.8717 29 66.8717" stroke="#820003" stroke-linecap="round" stroke-linejoin="round"/>
<path d="M33.1204 76.5914C32.6387 76.7848 32.1232 76.8801 31.6042 76.8717C28.4456 76.8717 28.4456 74 25.3014 74C22.1573 74 22.1494 76.8717 19 76.8717" stroke="#820003" stroke-linecap="round" stroke-linejoin="round"/>
<path d="M53.1204 84.5914C52.6387 84.7848 52.1232 84.8801 51.6042 84.8717C48.4456 84.8717 48.4456 82 45.3014 82C42.1573 82 42.1494 84.8717 39 84.8717" stroke="#820003" stroke-linecap="round" stroke-linejoin="round"/>
<path d="M90.1204 85.5914C89.6387 85.7848 89.1232 85.8801 88.6042 85.8717C85.4456 85.8717 85.4456 83 82.3014 83C79.1573 83 79.1494 85.8717 76 85.8717" stroke="#820003" stroke-linecap="round" stroke-linejoin="round"/>
<path d="M81.1204 77.5914C80.6387 77.7848 80.1232 77.8801 79.6042 77.8717C76.4456 77.8717 76.4456 75 73.3014 75C70.1573 75 70.1494 77.8717 67 77.8717" stroke="#820003" stroke-linecap="round" stroke-linejoin="round"/>
</svg>
